<mxfile host="app.diagrams.net" agent="Mozilla/5.0 (Macintosh; Intel Mac OS X 10_15_7) AppleWebKit/537.36 (KHTML, like Gecko) Chrome/133.0.0.0 Safari/537.36" version="26.1.1">
  <diagram name="Page-1" id="04eZTmSLNJgUhnqo3_pa">
    <mxGraphModel grid="1" page="1" gridSize="10" guides="1" tooltips="1" connect="1" arrows="1" fold="1" pageScale="1" pageWidth="827" pageHeight="1169" math="0" shadow="0">
      <root>
        <mxCell id="0" />
        <mxCell id="1" parent="0" />
        <mxCell id="QvcRcpZz988IZ9j-JeaG-220" value="" style="rounded=0;whiteSpace=wrap;html=1;" vertex="1" parent="1">
          <mxGeometry x="790" y="1320" width="2130" height="2880" as="geometry" />
        </mxCell>
        <mxCell id="QvcRcpZz988IZ9j-JeaG-215" value="" style="edgeStyle=orthogonalEdgeStyle;rounded=0;orthogonalLoop=1;jettySize=auto;html=1;" edge="1" parent="1" source="QvcRcpZz988IZ9j-JeaG-212" target="QvcRcpZz988IZ9j-JeaG-214">
          <mxGeometry relative="1" as="geometry" />
        </mxCell>
        <mxCell id="QvcRcpZz988IZ9j-JeaG-212" value="" style="rounded=0;whiteSpace=wrap;html=1;" vertex="1" parent="1">
          <mxGeometry x="1157" y="2500" width="1490" height="1290" as="geometry" />
        </mxCell>
        <mxCell id="QvcRcpZz988IZ9j-JeaG-80" value="" style="rounded=0;whiteSpace=wrap;html=1;" vertex="1" parent="1">
          <mxGeometry y="-15" width="820" height="715" as="geometry" />
        </mxCell>
        <mxCell id="QvcRcpZz988IZ9j-JeaG-79" value="" style="rounded=0;whiteSpace=wrap;html=1;" vertex="1" parent="1">
          <mxGeometry x="920" y="-50" width="1650" height="1220" as="geometry" />
        </mxCell>
        <mxCell id="QvcRcpZz988IZ9j-JeaG-77" value="" style="rounded=0;whiteSpace=wrap;html=1;" vertex="1" parent="1">
          <mxGeometry x="2598" y="30" width="922" height="480" as="geometry" />
        </mxCell>
        <mxCell id="QvcRcpZz988IZ9j-JeaG-73" value="" style="rounded=0;whiteSpace=wrap;html=1;" vertex="1" parent="1">
          <mxGeometry x="2620" y="70" width="850" height="270" as="geometry" />
        </mxCell>
        <mxCell id="QvcRcpZz988IZ9j-JeaG-71" value="" style="rounded=0;whiteSpace=wrap;html=1;" vertex="1" parent="1">
          <mxGeometry x="2630" y="380" width="570" height="120" as="geometry" />
        </mxCell>
        <mxCell id="QvcRcpZz988IZ9j-JeaG-42" value="200, 201 Jenkin job triggered successfully" style="rounded=1;whiteSpace=wrap;html=1;" vertex="1" parent="1">
          <mxGeometry x="2330" y="1035" width="120" height="60" as="geometry" />
        </mxCell>
        <mxCell id="bCO52bIQ9dE28dOcg5Y--2" value="Frontend" style="text;strokeColor=none;fillColor=none;align=left;verticalAlign=middle;spacingLeft=4;spacingRight=4;overflow=hidden;points=[[0,0.5],[1,0.5]];portConstraint=eastwest;rotatable=0;whiteSpace=wrap;html=1;" vertex="1" parent="1">
          <mxGeometry x="30" y="30" width="80" height="30" as="geometry" />
        </mxCell>
        <mxCell id="bCO52bIQ9dE28dOcg5Y--3" value="" style="edgeStyle=orthogonalEdgeStyle;rounded=0;orthogonalLoop=1;jettySize=auto;html=1;" edge="1" parent="1" source="bCO52bIQ9dE28dOcg5Y--4" target="bCO52bIQ9dE28dOcg5Y--7">
          <mxGeometry relative="1" as="geometry" />
        </mxCell>
        <mxCell id="bCO52bIQ9dE28dOcg5Y--4" value="Login Page" style="rounded=1;whiteSpace=wrap;html=1;" vertex="1" parent="1">
          <mxGeometry x="40" y="80" width="100" height="60" as="geometry" />
        </mxCell>
        <mxCell id="bCO52bIQ9dE28dOcg5Y--5" style="edgeStyle=orthogonalEdgeStyle;rounded=0;orthogonalLoop=1;jettySize=auto;html=1;entryX=0.25;entryY=1;entryDx=0;entryDy=0;" edge="1" parent="1" source="bCO52bIQ9dE28dOcg5Y--7" target="bCO52bIQ9dE28dOcg5Y--4">
          <mxGeometry relative="1" as="geometry">
            <Array as="points">
              <mxPoint x="210" y="220" />
              <mxPoint x="65" y="220" />
            </Array>
          </mxGeometry>
        </mxCell>
        <mxCell id="bCO52bIQ9dE28dOcg5Y--6" value="" style="edgeStyle=orthogonalEdgeStyle;rounded=0;orthogonalLoop=1;jettySize=auto;html=1;" edge="1" parent="1" source="bCO52bIQ9dE28dOcg5Y--7" target="bCO52bIQ9dE28dOcg5Y--9">
          <mxGeometry relative="1" as="geometry" />
        </mxCell>
        <mxCell id="bCO52bIQ9dE28dOcg5Y--7" value="AWS Cognito" style="shape=cylinder3;whiteSpace=wrap;html=1;boundedLbl=1;backgroundOutline=1;size=15;" vertex="1" parent="1">
          <mxGeometry x="180" y="70" width="60" height="80" as="geometry" />
        </mxCell>
        <mxCell id="bCO52bIQ9dE28dOcg5Y--8" value="" style="edgeStyle=orthogonalEdgeStyle;rounded=0;orthogonalLoop=1;jettySize=auto;html=1;" edge="1" parent="1" source="bCO52bIQ9dE28dOcg5Y--9" target="bCO52bIQ9dE28dOcg5Y--41">
          <mxGeometry relative="1" as="geometry">
            <mxPoint x="580" y="130" as="targetPoint" />
          </mxGeometry>
        </mxCell>
        <mxCell id="bCO52bIQ9dE28dOcg5Y--9" value="Browser Local storage&lt;br&gt;&lt;br&gt;- Encrypted (User id, access token, refresh token, username)" style="rounded=1;whiteSpace=wrap;html=1;" vertex="1" parent="1">
          <mxGeometry x="340" y="80" width="160" height="100" as="geometry" />
        </mxCell>
        <mxCell id="bCO52bIQ9dE28dOcg5Y--10" value="Invalid Credentials" style="text;html=1;align=center;verticalAlign=middle;whiteSpace=wrap;rounded=0;" vertex="1" parent="1">
          <mxGeometry x="100" y="180" width="60" height="30" as="geometry" />
        </mxCell>
        <mxCell id="bCO52bIQ9dE28dOcg5Y--11" value="Valid Credentials" style="text;html=1;align=center;verticalAlign=middle;whiteSpace=wrap;rounded=0;" vertex="1" parent="1">
          <mxGeometry x="250" y="80" width="60" height="30" as="geometry" />
        </mxCell>
        <mxCell id="bCO52bIQ9dE28dOcg5Y--43" style="edgeStyle=orthogonalEdgeStyle;rounded=0;orthogonalLoop=1;jettySize=auto;html=1;" edge="1" parent="1" source="bCO52bIQ9dE28dOcg5Y--41" target="bCO52bIQ9dE28dOcg5Y--44">
          <mxGeometry relative="1" as="geometry">
            <mxPoint x="600" y="230" as="targetPoint" />
          </mxGeometry>
        </mxCell>
        <mxCell id="bCO52bIQ9dE28dOcg5Y--41" value="Create App flow" style="rounded=0;whiteSpace=wrap;html=1;" vertex="1" parent="1">
          <mxGeometry x="540" y="100" width="120" height="60" as="geometry" />
        </mxCell>
        <mxCell id="bCO52bIQ9dE28dOcg5Y--46" style="edgeStyle=orthogonalEdgeStyle;rounded=0;orthogonalLoop=1;jettySize=auto;html=1;" edge="1" parent="1" source="bCO52bIQ9dE28dOcg5Y--44" target="bCO52bIQ9dE28dOcg5Y--47">
          <mxGeometry relative="1" as="geometry">
            <mxPoint x="600" y="460" as="targetPoint" />
          </mxGeometry>
        </mxCell>
        <mxCell id="bCO52bIQ9dE28dOcg5Y--44" value="Enter app data" style="shape=manualInput;whiteSpace=wrap;html=1;" vertex="1" parent="1">
          <mxGeometry x="500" y="230" width="200" height="80" as="geometry" />
        </mxCell>
        <mxCell id="bCO52bIQ9dE28dOcg5Y--45" value="&lt;b&gt;Mandatory Fields&lt;br&gt;&lt;/b&gt;- Project name (alphanumeric and hyphen, max 30 characters, unqiue)&lt;br&gt;- Project description(Alphanumeric, max 60 characters)&lt;br&gt;- Project Category&lt;br&gt;- Permissions&lt;br&gt;&lt;br&gt;&lt;b&gt;Optional Field&lt;br&gt;&lt;/b&gt;-Project blog(joedit content)" style="text;html=1;align=left;verticalAlign=middle;whiteSpace=wrap;rounded=0;" vertex="1" parent="1">
          <mxGeometry x="300" y="200" width="200" height="240" as="geometry" />
        </mxCell>
        <mxCell id="bCO52bIQ9dE28dOcg5Y--50" value="" style="edgeStyle=orthogonalEdgeStyle;rounded=0;orthogonalLoop=1;jettySize=auto;html=1;" edge="1" parent="1" source="bCO52bIQ9dE28dOcg5Y--47" target="bCO52bIQ9dE28dOcg5Y--49">
          <mxGeometry relative="1" as="geometry" />
        </mxCell>
        <mxCell id="bCO52bIQ9dE28dOcg5Y--47" value="App.py" style="rounded=1;whiteSpace=wrap;html=1;" vertex="1" parent="1">
          <mxGeometry x="540" y="460" width="120" height="60" as="geometry" />
        </mxCell>
        <mxCell id="bCO52bIQ9dE28dOcg5Y--48" value="Github URL with github PAT token.&lt;br&gt;- Repo should have single app.py.&lt;br&gt;&lt;div style=&quot;&quot;&gt;&lt;span style=&quot;background-color: initial;&quot;&gt;- Repo should not contain any other file other than app.py&lt;/span&gt;&lt;/div&gt;" style="text;html=1;align=left;verticalAlign=middle;whiteSpace=wrap;rounded=0;" vertex="1" parent="1">
          <mxGeometry x="340" y="440" width="190" height="100" as="geometry" />
        </mxCell>
        <mxCell id="bCO52bIQ9dE28dOcg5Y--49" value="Build" style="rounded=1;whiteSpace=wrap;html=1;" vertex="1" parent="1">
          <mxGeometry x="540" y="560" width="120" height="60" as="geometry" />
        </mxCell>
        <mxCell id="QvcRcpZz988IZ9j-JeaG-1" value="" style="edgeStyle=orthogonalEdgeStyle;rounded=0;orthogonalLoop=1;jettySize=auto;html=1;" edge="1" parent="1" source="bCO52bIQ9dE28dOcg5Y--51" target="bCO52bIQ9dE28dOcg5Y--52">
          <mxGeometry relative="1" as="geometry" />
        </mxCell>
        <mxCell id="bCO52bIQ9dE28dOcg5Y--51" value="Authorization&amp;nbsp;&lt;br&gt;(access token and username)" style="rounded=1;whiteSpace=wrap;html=1;" vertex="1" parent="1">
          <mxGeometry x="980" y="110" width="120" height="60" as="geometry" />
        </mxCell>
        <mxCell id="QvcRcpZz988IZ9j-JeaG-2" value="" style="edgeStyle=orthogonalEdgeStyle;rounded=0;orthogonalLoop=1;jettySize=auto;html=1;" edge="1" parent="1" source="bCO52bIQ9dE28dOcg5Y--52" target="bCO52bIQ9dE28dOcg5Y--53">
          <mxGeometry relative="1" as="geometry" />
        </mxCell>
        <mxCell id="bCO52bIQ9dE28dOcg5Y--52" value="Check project id in DB" style="rounded=1;whiteSpace=wrap;html=1;" vertex="1" parent="1">
          <mxGeometry x="1170" y="110" width="120" height="60" as="geometry" />
        </mxCell>
        <mxCell id="QvcRcpZz988IZ9j-JeaG-3" value="" style="edgeStyle=orthogonalEdgeStyle;rounded=0;orthogonalLoop=1;jettySize=auto;html=1;" edge="1" parent="1" source="bCO52bIQ9dE28dOcg5Y--53" target="bCO52bIQ9dE28dOcg5Y--55">
          <mxGeometry relative="1" as="geometry" />
        </mxCell>
        <mxCell id="bCO52bIQ9dE28dOcg5Y--53" value="Generate Build ID" style="rounded=1;whiteSpace=wrap;html=1;" vertex="1" parent="1">
          <mxGeometry x="1340" y="110" width="120" height="60" as="geometry" />
        </mxCell>
        <mxCell id="bCO52bIQ9dE28dOcg5Y--57" value="" style="edgeStyle=orthogonalEdgeStyle;rounded=0;orthogonalLoop=1;jettySize=auto;html=1;" edge="1" parent="1" source="bCO52bIQ9dE28dOcg5Y--55" target="bCO52bIQ9dE28dOcg5Y--56">
          <mxGeometry relative="1" as="geometry" />
        </mxCell>
        <mxCell id="bCO52bIQ9dE28dOcg5Y--58" value="No" style="edgeLabel;html=1;align=center;verticalAlign=middle;resizable=0;points=[];" vertex="1" connectable="0" parent="bCO52bIQ9dE28dOcg5Y--57">
          <mxGeometry x="-0.2889" y="1" relative="1" as="geometry">
            <mxPoint as="offset" />
          </mxGeometry>
        </mxCell>
        <mxCell id="bCO52bIQ9dE28dOcg5Y--60" value="" style="edgeStyle=orthogonalEdgeStyle;rounded=0;orthogonalLoop=1;jettySize=auto;html=1;" edge="1" parent="1" source="bCO52bIQ9dE28dOcg5Y--55" target="bCO52bIQ9dE28dOcg5Y--59">
          <mxGeometry relative="1" as="geometry" />
        </mxCell>
        <mxCell id="bCO52bIQ9dE28dOcg5Y--55" value="project_type==&quot;app&quot;" style="rhombus;whiteSpace=wrap;html=1;" vertex="1" parent="1">
          <mxGeometry x="1510" y="85" width="140" height="110" as="geometry" />
        </mxCell>
        <mxCell id="bCO52bIQ9dE28dOcg5Y--56" value="Model build process" style="text;html=1;align=center;verticalAlign=middle;whiteSpace=wrap;rounded=0;" vertex="1" parent="1">
          <mxGeometry x="1550" y="10" width="60" height="30" as="geometry" />
        </mxCell>
        <mxCell id="bCO52bIQ9dE28dOcg5Y--62" value="" style="edgeStyle=orthogonalEdgeStyle;rounded=0;orthogonalLoop=1;jettySize=auto;html=1;" edge="1" parent="1" source="bCO52bIQ9dE28dOcg5Y--59" target="bCO52bIQ9dE28dOcg5Y--61">
          <mxGeometry relative="1" as="geometry" />
        </mxCell>
        <mxCell id="bCO52bIQ9dE28dOcg5Y--67" style="edgeStyle=orthogonalEdgeStyle;rounded=0;orthogonalLoop=1;jettySize=auto;html=1;entryX=0.5;entryY=0;entryDx=0;entryDy=0;" edge="1" parent="1" source="bCO52bIQ9dE28dOcg5Y--59" target="bCO52bIQ9dE28dOcg5Y--66">
          <mxGeometry relative="1" as="geometry" />
        </mxCell>
        <mxCell id="bCO52bIQ9dE28dOcg5Y--59" value="Check app id in DB" style="rounded=1;whiteSpace=wrap;html=1;" vertex="1" parent="1">
          <mxGeometry x="1520" y="240" width="120" height="60" as="geometry" />
        </mxCell>
        <mxCell id="bCO52bIQ9dE28dOcg5Y--61" value="404 app id not found" style="text;html=1;align=center;verticalAlign=middle;whiteSpace=wrap;rounded=0;" vertex="1" parent="1">
          <mxGeometry x="1380" y="180" width="60" height="30" as="geometry" />
        </mxCell>
        <mxCell id="bCO52bIQ9dE28dOcg5Y--63" value="403 app id does not belong to project id" style="text;html=1;align=center;verticalAlign=middle;whiteSpace=wrap;rounded=0;" vertex="1" parent="1">
          <mxGeometry x="1370" y="320" width="110" height="30" as="geometry" />
        </mxCell>
        <mxCell id="bCO52bIQ9dE28dOcg5Y--65" style="edgeStyle=orthogonalEdgeStyle;rounded=0;orthogonalLoop=1;jettySize=auto;html=1;entryX=0.691;entryY=-0.167;entryDx=0;entryDy=0;entryPerimeter=0;" edge="1" parent="1" source="bCO52bIQ9dE28dOcg5Y--59" target="bCO52bIQ9dE28dOcg5Y--63">
          <mxGeometry relative="1" as="geometry" />
        </mxCell>
        <mxCell id="bCO52bIQ9dE28dOcg5Y--69" value="" style="edgeStyle=orthogonalEdgeStyle;rounded=0;orthogonalLoop=1;jettySize=auto;html=1;" edge="1" parent="1" source="bCO52bIQ9dE28dOcg5Y--66" target="bCO52bIQ9dE28dOcg5Y--68">
          <mxGeometry relative="1" as="geometry" />
        </mxCell>
        <mxCell id="bCO52bIQ9dE28dOcg5Y--70" value="Yes" style="edgeLabel;html=1;align=center;verticalAlign=middle;resizable=0;points=[];" vertex="1" connectable="0" parent="bCO52bIQ9dE28dOcg5Y--69">
          <mxGeometry x="-0.2727" y="-1" relative="1" as="geometry">
            <mxPoint as="offset" />
          </mxGeometry>
        </mxCell>
        <mxCell id="bCO52bIQ9dE28dOcg5Y--73" value="" style="edgeStyle=orthogonalEdgeStyle;rounded=0;orthogonalLoop=1;jettySize=auto;html=1;" edge="1" parent="1" source="bCO52bIQ9dE28dOcg5Y--66" target="bCO52bIQ9dE28dOcg5Y--72">
          <mxGeometry relative="1" as="geometry" />
        </mxCell>
        <mxCell id="bCO52bIQ9dE28dOcg5Y--66" value="app.status!=staged" style="rhombus;whiteSpace=wrap;html=1;" vertex="1" parent="1">
          <mxGeometry x="1505" y="360" width="150" height="80" as="geometry" />
        </mxCell>
        <mxCell id="bCO52bIQ9dE28dOcg5Y--68" value="409 App is not in staged state" style="text;html=1;align=center;verticalAlign=middle;whiteSpace=wrap;rounded=0;" vertex="1" parent="1">
          <mxGeometry x="1350" y="385" width="100" height="30" as="geometry" />
        </mxCell>
        <mxCell id="bCO52bIQ9dE28dOcg5Y--76" value="" style="edgeStyle=orthogonalEdgeStyle;rounded=0;orthogonalLoop=1;jettySize=auto;html=1;" edge="1" parent="1" source="bCO52bIQ9dE28dOcg5Y--72" target="bCO52bIQ9dE28dOcg5Y--75">
          <mxGeometry relative="1" as="geometry" />
        </mxCell>
        <mxCell id="bCO52bIQ9dE28dOcg5Y--72" value="Query build model with app ID" style="rounded=1;whiteSpace=wrap;html=1;" vertex="1" parent="1">
          <mxGeometry x="1520" y="470" width="120" height="60" as="geometry" />
        </mxCell>
        <mxCell id="bCO52bIQ9dE28dOcg5Y--79" style="edgeStyle=orthogonalEdgeStyle;rounded=0;orthogonalLoop=1;jettySize=auto;html=1;" edge="1" parent="1" source="bCO52bIQ9dE28dOcg5Y--75" target="bCO52bIQ9dE28dOcg5Y--78">
          <mxGeometry relative="1" as="geometry" />
        </mxCell>
        <mxCell id="bCO52bIQ9dE28dOcg5Y--82" value="" style="edgeStyle=orthogonalEdgeStyle;rounded=0;orthogonalLoop=1;jettySize=auto;html=1;" edge="1" parent="1" source="bCO52bIQ9dE28dOcg5Y--75" target="bCO52bIQ9dE28dOcg5Y--80">
          <mxGeometry relative="1" as="geometry" />
        </mxCell>
        <mxCell id="bCO52bIQ9dE28dOcg5Y--75" value="Existing queued build&amp;nbsp;" style="rhombus;whiteSpace=wrap;html=1;" vertex="1" parent="1">
          <mxGeometry x="1500" y="580" width="160" height="80" as="geometry" />
        </mxCell>
        <mxCell id="bCO52bIQ9dE28dOcg5Y--78" value="409 Build for project already in progess. Wait until it finishes" style="text;html=1;align=center;verticalAlign=middle;whiteSpace=wrap;rounded=0;" vertex="1" parent="1">
          <mxGeometry x="1230" y="600" width="140" height="30" as="geometry" />
        </mxCell>
        <mxCell id="bCO52bIQ9dE28dOcg5Y--84" value="" style="edgeStyle=orthogonalEdgeStyle;rounded=0;orthogonalLoop=1;jettySize=auto;html=1;" edge="1" parent="1" source="bCO52bIQ9dE28dOcg5Y--80" target="bCO52bIQ9dE28dOcg5Y--83">
          <mxGeometry relative="1" as="geometry" />
        </mxCell>
        <mxCell id="bCO52bIQ9dE28dOcg5Y--80" value="Query DB for active build&amp;nbsp;" style="rounded=1;whiteSpace=wrap;html=1;" vertex="1" parent="1">
          <mxGeometry x="1520" y="690" width="120" height="60" as="geometry" />
        </mxCell>
        <mxCell id="bCO52bIQ9dE28dOcg5Y--87" value="" style="edgeStyle=orthogonalEdgeStyle;rounded=0;orthogonalLoop=1;jettySize=auto;html=1;" edge="1" parent="1" source="bCO52bIQ9dE28dOcg5Y--83" target="bCO52bIQ9dE28dOcg5Y--86">
          <mxGeometry relative="1" as="geometry" />
        </mxCell>
        <mxCell id="bCO52bIQ9dE28dOcg5Y--88" value="No" style="edgeLabel;html=1;align=center;verticalAlign=middle;resizable=0;points=[];" vertex="1" connectable="0" parent="bCO52bIQ9dE28dOcg5Y--87">
          <mxGeometry x="-0.16" y="2" relative="1" as="geometry">
            <mxPoint as="offset" />
          </mxGeometry>
        </mxCell>
        <mxCell id="bCO52bIQ9dE28dOcg5Y--89" value="" style="edgeStyle=orthogonalEdgeStyle;rounded=0;orthogonalLoop=1;jettySize=auto;html=1;" edge="1" parent="1" source="bCO52bIQ9dE28dOcg5Y--83" target="bCO52bIQ9dE28dOcg5Y--85">
          <mxGeometry relative="1" as="geometry" />
        </mxCell>
        <mxCell id="bCO52bIQ9dE28dOcg5Y--90" value="Yes" style="edgeLabel;html=1;align=center;verticalAlign=middle;resizable=0;points=[];" vertex="1" connectable="0" parent="bCO52bIQ9dE28dOcg5Y--89">
          <mxGeometry x="-0.0889" relative="1" as="geometry">
            <mxPoint as="offset" />
          </mxGeometry>
        </mxCell>
        <mxCell id="bCO52bIQ9dE28dOcg5Y--83" value="Build is None" style="rhombus;whiteSpace=wrap;html=1;" vertex="1" parent="1">
          <mxGeometry x="1540" y="790" width="80" height="80" as="geometry" />
        </mxCell>
        <mxCell id="QvcRcpZz988IZ9j-JeaG-7" style="edgeStyle=orthogonalEdgeStyle;rounded=0;orthogonalLoop=1;jettySize=auto;html=1;" edge="1" parent="1" source="bCO52bIQ9dE28dOcg5Y--85" target="QvcRcpZz988IZ9j-JeaG-5">
          <mxGeometry relative="1" as="geometry" />
        </mxCell>
        <mxCell id="bCO52bIQ9dE28dOcg5Y--85" value="Add build in DB" style="rounded=1;whiteSpace=wrap;html=1;" vertex="1" parent="1">
          <mxGeometry x="1650" y="890" width="120" height="60" as="geometry" />
        </mxCell>
        <mxCell id="QvcRcpZz988IZ9j-JeaG-6" style="edgeStyle=orthogonalEdgeStyle;rounded=0;orthogonalLoop=1;jettySize=auto;html=1;entryX=0;entryY=0.75;entryDx=0;entryDy=0;" edge="1" parent="1" source="bCO52bIQ9dE28dOcg5Y--86" target="QvcRcpZz988IZ9j-JeaG-5">
          <mxGeometry relative="1" as="geometry" />
        </mxCell>
        <mxCell id="bCO52bIQ9dE28dOcg5Y--86" value="Make build_status to QUEUED in DB" style="rounded=1;whiteSpace=wrap;html=1;" vertex="1" parent="1">
          <mxGeometry x="1520" y="920" width="120" height="60" as="geometry" />
        </mxCell>
        <mxCell id="QvcRcpZz988IZ9j-JeaG-4" value="" style="endArrow=none;dashed=1;html=1;dashPattern=1 3;strokeWidth=2;rounded=0;exitX=1;exitY=0.5;exitDx=0;exitDy=0;entryX=0;entryY=0.5;entryDx=0;entryDy=0;" edge="1" parent="1" source="bCO52bIQ9dE28dOcg5Y--49" target="bCO52bIQ9dE28dOcg5Y--51">
          <mxGeometry width="50" height="50" relative="1" as="geometry">
            <mxPoint x="820" y="530" as="sourcePoint" />
            <mxPoint x="850" y="140" as="targetPoint" />
            <Array as="points">
              <mxPoint x="850" y="590" />
              <mxPoint x="850" y="140" />
            </Array>
          </mxGeometry>
        </mxCell>
        <mxCell id="QvcRcpZz988IZ9j-JeaG-10" style="edgeStyle=orthogonalEdgeStyle;rounded=0;orthogonalLoop=1;jettySize=auto;html=1;entryX=0;entryY=0.5;entryDx=0;entryDy=0;" edge="1" parent="1" source="QvcRcpZz988IZ9j-JeaG-5" target="QvcRcpZz988IZ9j-JeaG-8">
          <mxGeometry relative="1" as="geometry" />
        </mxCell>
        <mxCell id="QvcRcpZz988IZ9j-JeaG-5" value="Extract secret from App state" style="rounded=1;whiteSpace=wrap;html=1;" vertex="1" parent="1">
          <mxGeometry x="1640" y="1000" width="120" height="60" as="geometry" />
        </mxCell>
        <mxCell id="QvcRcpZz988IZ9j-JeaG-12" style="edgeStyle=orthogonalEdgeStyle;rounded=0;orthogonalLoop=1;jettySize=auto;html=1;entryX=0.5;entryY=1;entryDx=0;entryDy=0;" edge="1" parent="1" source="QvcRcpZz988IZ9j-JeaG-8" target="QvcRcpZz988IZ9j-JeaG-14">
          <mxGeometry relative="1" as="geometry">
            <mxPoint x="1885" y="920" as="targetPoint" />
          </mxGeometry>
        </mxCell>
        <mxCell id="QvcRcpZz988IZ9j-JeaG-13" value="No" style="edgeLabel;html=1;align=center;verticalAlign=middle;resizable=0;points=[];" connectable="0" vertex="1" parent="QvcRcpZz988IZ9j-JeaG-12">
          <mxGeometry x="0.0746" y="-4" relative="1" as="geometry">
            <mxPoint as="offset" />
          </mxGeometry>
        </mxCell>
        <mxCell id="QvcRcpZz988IZ9j-JeaG-26" value="" style="edgeStyle=orthogonalEdgeStyle;rounded=0;orthogonalLoop=1;jettySize=auto;html=1;" edge="1" parent="1" source="QvcRcpZz988IZ9j-JeaG-8" target="QvcRcpZz988IZ9j-JeaG-25">
          <mxGeometry relative="1" as="geometry" />
        </mxCell>
        <mxCell id="QvcRcpZz988IZ9j-JeaG-27" value="Yes" style="edgeLabel;html=1;align=center;verticalAlign=middle;resizable=0;points=[];" connectable="0" vertex="1" parent="QvcRcpZz988IZ9j-JeaG-26">
          <mxGeometry x="-0.3831" y="3" relative="1" as="geometry">
            <mxPoint as="offset" />
          </mxGeometry>
        </mxCell>
        <mxCell id="QvcRcpZz988IZ9j-JeaG-8" value="project_type == &quot;app&quot;" style="rhombus;whiteSpace=wrap;html=1;" vertex="1" parent="1">
          <mxGeometry x="1810" y="980" width="150" height="100" as="geometry" />
        </mxCell>
        <mxCell id="QvcRcpZz988IZ9j-JeaG-16" style="edgeStyle=orthogonalEdgeStyle;rounded=0;orthogonalLoop=1;jettySize=auto;html=1;" edge="1" parent="1" source="QvcRcpZz988IZ9j-JeaG-14" target="QvcRcpZz988IZ9j-JeaG-15">
          <mxGeometry relative="1" as="geometry" />
        </mxCell>
        <mxCell id="QvcRcpZz988IZ9j-JeaG-17" value="No" style="edgeLabel;html=1;align=center;verticalAlign=middle;resizable=0;points=[];" connectable="0" vertex="1" parent="QvcRcpZz988IZ9j-JeaG-16">
          <mxGeometry x="0.0361" y="2" relative="1" as="geometry">
            <mxPoint as="offset" />
          </mxGeometry>
        </mxCell>
        <mxCell id="QvcRcpZz988IZ9j-JeaG-20" style="edgeStyle=orthogonalEdgeStyle;rounded=0;orthogonalLoop=1;jettySize=auto;html=1;" edge="1" parent="1" source="QvcRcpZz988IZ9j-JeaG-14" target="QvcRcpZz988IZ9j-JeaG-24">
          <mxGeometry relative="1" as="geometry">
            <mxPoint x="2040" y="880" as="targetPoint" />
          </mxGeometry>
        </mxCell>
        <mxCell id="QvcRcpZz988IZ9j-JeaG-21" value="Yes" style="edgeLabel;html=1;align=center;verticalAlign=middle;resizable=0;points=[];" connectable="0" vertex="1" parent="QvcRcpZz988IZ9j-JeaG-20">
          <mxGeometry x="0.2295" y="-2" relative="1" as="geometry">
            <mxPoint as="offset" />
          </mxGeometry>
        </mxCell>
        <mxCell id="QvcRcpZz988IZ9j-JeaG-14" value="project_type==&quot;model&quot;" style="rhombus;whiteSpace=wrap;html=1;" vertex="1" parent="1">
          <mxGeometry x="1810" y="840" width="150" height="80" as="geometry" />
        </mxCell>
        <mxCell id="QvcRcpZz988IZ9j-JeaG-15" value="400 Project type not supported" style="text;html=1;align=center;verticalAlign=middle;whiteSpace=wrap;rounded=0;" vertex="1" parent="1">
          <mxGeometry x="1815" y="760" width="140" height="30" as="geometry" />
        </mxCell>
        <mxCell id="QvcRcpZz988IZ9j-JeaG-30" style="edgeStyle=orthogonalEdgeStyle;rounded=0;orthogonalLoop=1;jettySize=auto;html=1;entryX=0.25;entryY=0;entryDx=0;entryDy=0;" edge="1" parent="1" source="QvcRcpZz988IZ9j-JeaG-24" target="QvcRcpZz988IZ9j-JeaG-29">
          <mxGeometry relative="1" as="geometry" />
        </mxCell>
        <mxCell id="QvcRcpZz988IZ9j-JeaG-24" value="Build jenkins trigger url with model ID" style="rounded=1;whiteSpace=wrap;html=1;" vertex="1" parent="1">
          <mxGeometry x="2040" y="850" width="120" height="60" as="geometry" />
        </mxCell>
        <mxCell id="QvcRcpZz988IZ9j-JeaG-25" value="Build jenkins trigger url with app ID" style="rounded=1;whiteSpace=wrap;html=1;" vertex="1" parent="1">
          <mxGeometry x="2020" y="1000" width="120" height="60" as="geometry" />
        </mxCell>
        <mxCell id="QvcRcpZz988IZ9j-JeaG-35" style="edgeStyle=orthogonalEdgeStyle;rounded=0;orthogonalLoop=1;jettySize=auto;html=1;entryX=0.5;entryY=1;entryDx=0;entryDy=0;" edge="1" parent="1" source="QvcRcpZz988IZ9j-JeaG-29" target="QvcRcpZz988IZ9j-JeaG-44">
          <mxGeometry relative="1" as="geometry">
            <mxPoint x="2380" y="850" as="targetPoint" />
          </mxGeometry>
        </mxCell>
        <mxCell id="QvcRcpZz988IZ9j-JeaG-36" style="edgeStyle=orthogonalEdgeStyle;rounded=0;orthogonalLoop=1;jettySize=auto;html=1;" edge="1" parent="1" source="QvcRcpZz988IZ9j-JeaG-29" target="QvcRcpZz988IZ9j-JeaG-42">
          <mxGeometry relative="1" as="geometry">
            <mxPoint x="2380" y="1040" as="targetPoint" />
            <Array as="points">
              <mxPoint x="2381" y="950" />
            </Array>
          </mxGeometry>
        </mxCell>
        <mxCell id="QvcRcpZz988IZ9j-JeaG-29" value="Trigger jenkins job using URL" style="rounded=1;whiteSpace=wrap;html=1;" vertex="1" parent="1">
          <mxGeometry x="2180" y="920" width="120" height="60" as="geometry" />
        </mxCell>
        <mxCell id="QvcRcpZz988IZ9j-JeaG-31" style="edgeStyle=orthogonalEdgeStyle;rounded=0;orthogonalLoop=1;jettySize=auto;html=1;entryX=0.175;entryY=1.034;entryDx=0;entryDy=0;entryPerimeter=0;" edge="1" parent="1" source="QvcRcpZz988IZ9j-JeaG-25" target="QvcRcpZz988IZ9j-JeaG-29">
          <mxGeometry relative="1" as="geometry" />
        </mxCell>
        <mxCell id="QvcRcpZz988IZ9j-JeaG-41" style="edgeStyle=orthogonalEdgeStyle;rounded=0;orthogonalLoop=1;jettySize=auto;html=1;" edge="1" parent="1" source="QvcRcpZz988IZ9j-JeaG-42">
          <mxGeometry relative="1" as="geometry">
            <mxPoint x="2520" y="990" as="targetPoint" />
          </mxGeometry>
        </mxCell>
        <mxCell id="QvcRcpZz988IZ9j-JeaG-37" value="DB commit for build status" style="rounded=1;whiteSpace=wrap;html=1;" vertex="1" parent="1">
          <mxGeometry x="2440" y="920" width="120" height="60" as="geometry" />
        </mxCell>
        <mxCell id="QvcRcpZz988IZ9j-JeaG-40" style="edgeStyle=orthogonalEdgeStyle;rounded=0;orthogonalLoop=1;jettySize=auto;html=1;entryX=0.667;entryY=0;entryDx=0;entryDy=0;entryPerimeter=0;exitX=1;exitY=0.5;exitDx=0;exitDy=0;" edge="1" parent="1" source="QvcRcpZz988IZ9j-JeaG-44" target="QvcRcpZz988IZ9j-JeaG-37">
          <mxGeometry relative="1" as="geometry">
            <mxPoint x="2440" y="825" as="sourcePoint" />
            <Array as="points">
              <mxPoint x="2440" y="825" />
              <mxPoint x="2520" y="825" />
            </Array>
          </mxGeometry>
        </mxCell>
        <mxCell id="QvcRcpZz988IZ9j-JeaG-44" value="Respective exception if jenkin job triggering failed&amp;nbsp;" style="rounded=1;whiteSpace=wrap;html=1;" vertex="1" parent="1">
          <mxGeometry x="2320" y="800" width="120" height="60" as="geometry" />
        </mxCell>
        <mxCell id="QvcRcpZz988IZ9j-JeaG-55" value="" style="edgeStyle=orthogonalEdgeStyle;rounded=0;orthogonalLoop=1;jettySize=auto;html=1;" edge="1" parent="1" source="QvcRcpZz988IZ9j-JeaG-45" target="QvcRcpZz988IZ9j-JeaG-46">
          <mxGeometry relative="1" as="geometry" />
        </mxCell>
        <mxCell id="QvcRcpZz988IZ9j-JeaG-45" value="Fetch parameters from AWS secrets manager" style="rounded=1;whiteSpace=wrap;html=1;" vertex="1" parent="1">
          <mxGeometry x="2730" y="90" width="120" height="60" as="geometry" />
        </mxCell>
        <mxCell id="QvcRcpZz988IZ9j-JeaG-56" value="" style="edgeStyle=orthogonalEdgeStyle;rounded=0;orthogonalLoop=1;jettySize=auto;html=1;" edge="1" parent="1" source="QvcRcpZz988IZ9j-JeaG-46" target="QvcRcpZz988IZ9j-JeaG-47">
          <mxGeometry relative="1" as="geometry" />
        </mxCell>
        <mxCell id="QvcRcpZz988IZ9j-JeaG-46" value="Clean the artifacts and project directory.&lt;br&gt;Format the project ID and app ID.&amp;nbsp;" style="rounded=1;whiteSpace=wrap;html=1;" vertex="1" parent="1">
          <mxGeometry x="2870" y="90" width="120" height="60" as="geometry" />
        </mxCell>
        <mxCell id="QvcRcpZz988IZ9j-JeaG-57" value="" style="edgeStyle=orthogonalEdgeStyle;rounded=0;orthogonalLoop=1;jettySize=auto;html=1;" edge="1" parent="1" source="QvcRcpZz988IZ9j-JeaG-47" target="QvcRcpZz988IZ9j-JeaG-48">
          <mxGeometry relative="1" as="geometry" />
        </mxCell>
        <mxCell id="QvcRcpZz988IZ9j-JeaG-47" value="Download files from s3" style="rounded=1;whiteSpace=wrap;html=1;" vertex="1" parent="1">
          <mxGeometry x="3020" y="90" width="120" height="60" as="geometry" />
        </mxCell>
        <mxCell id="QvcRcpZz988IZ9j-JeaG-58" value="" style="edgeStyle=orthogonalEdgeStyle;rounded=0;orthogonalLoop=1;jettySize=auto;html=1;" edge="1" parent="1" source="QvcRcpZz988IZ9j-JeaG-48" target="QvcRcpZz988IZ9j-JeaG-49">
          <mxGeometry relative="1" as="geometry" />
        </mxCell>
        <mxCell id="QvcRcpZz988IZ9j-JeaG-48" value="Dynamic Setup.py creation" style="rounded=1;whiteSpace=wrap;html=1;" vertex="1" parent="1">
          <mxGeometry x="3170" y="90" width="120" height="60" as="geometry" />
        </mxCell>
        <mxCell id="QvcRcpZz988IZ9j-JeaG-51" value="" style="edgeStyle=orthogonalEdgeStyle;rounded=0;orthogonalLoop=1;jettySize=auto;html=1;" edge="1" parent="1" source="QvcRcpZz988IZ9j-JeaG-49" target="QvcRcpZz988IZ9j-JeaG-50">
          <mxGeometry relative="1" as="geometry" />
        </mxCell>
        <mxCell id="QvcRcpZz988IZ9j-JeaG-59" value="" style="edgeStyle=orthogonalEdgeStyle;rounded=0;orthogonalLoop=1;jettySize=auto;html=1;" edge="1" parent="1" source="QvcRcpZz988IZ9j-JeaG-49" target="QvcRcpZz988IZ9j-JeaG-52">
          <mxGeometry relative="1" as="geometry" />
        </mxCell>
        <mxCell id="QvcRcpZz988IZ9j-JeaG-49" value="Static Analysis of code with Pylint. Saves result as pylint_results.json" style="rounded=1;whiteSpace=wrap;html=1;" vertex="1" parent="1">
          <mxGeometry x="3170" y="190" width="120" height="60" as="geometry" />
        </mxCell>
        <mxCell id="QvcRcpZz988IZ9j-JeaG-50" value="Fails the build if pylint reports issue" style="text;html=1;align=center;verticalAlign=middle;whiteSpace=wrap;rounded=0;" vertex="1" parent="1">
          <mxGeometry x="3340" y="200" width="100" height="30" as="geometry" />
        </mxCell>
        <mxCell id="QvcRcpZz988IZ9j-JeaG-54" value="" style="edgeStyle=orthogonalEdgeStyle;rounded=0;orthogonalLoop=1;jettySize=auto;html=1;" edge="1" parent="1" source="QvcRcpZz988IZ9j-JeaG-52" target="QvcRcpZz988IZ9j-JeaG-53">
          <mxGeometry relative="1" as="geometry" />
        </mxCell>
        <mxCell id="QvcRcpZz988IZ9j-JeaG-62" value="" style="edgeStyle=orthogonalEdgeStyle;rounded=0;orthogonalLoop=1;jettySize=auto;html=1;" edge="1" parent="1" source="QvcRcpZz988IZ9j-JeaG-52" target="QvcRcpZz988IZ9j-JeaG-60">
          <mxGeometry relative="1" as="geometry" />
        </mxCell>
        <mxCell id="QvcRcpZz988IZ9j-JeaG-52" value="Security test with bandit. Saves result as bandit_results.json" style="rounded=1;whiteSpace=wrap;html=1;" vertex="1" parent="1">
          <mxGeometry x="3020" y="190" width="120" height="60" as="geometry" />
        </mxCell>
        <mxCell id="QvcRcpZz988IZ9j-JeaG-53" value="Fails build if vulnerbitlites found" style="text;html=1;align=center;verticalAlign=middle;whiteSpace=wrap;rounded=0;" vertex="1" parent="1">
          <mxGeometry x="3010" y="300" width="140" height="30" as="geometry" />
        </mxCell>
        <mxCell id="QvcRcpZz988IZ9j-JeaG-67" value="" style="edgeStyle=orthogonalEdgeStyle;rounded=0;orthogonalLoop=1;jettySize=auto;html=1;" edge="1" parent="1" source="QvcRcpZz988IZ9j-JeaG-60" target="QvcRcpZz988IZ9j-JeaG-63">
          <mxGeometry relative="1" as="geometry" />
        </mxCell>
        <mxCell id="QvcRcpZz988IZ9j-JeaG-60" value="Build .whl files" style="rounded=1;whiteSpace=wrap;html=1;" vertex="1" parent="1">
          <mxGeometry x="2860" y="190" width="120" height="60" as="geometry" />
        </mxCell>
        <mxCell id="QvcRcpZz988IZ9j-JeaG-61" value="Clean build by removing dist/ and build/" style="text;html=1;align=center;verticalAlign=middle;whiteSpace=wrap;rounded=0;" vertex="1" parent="1">
          <mxGeometry x="2840" y="265" width="150" height="30" as="geometry" />
        </mxCell>
        <mxCell id="QvcRcpZz988IZ9j-JeaG-68" style="edgeStyle=orthogonalEdgeStyle;rounded=0;orthogonalLoop=1;jettySize=auto;html=1;" edge="1" parent="1" source="QvcRcpZz988IZ9j-JeaG-63" target="QvcRcpZz988IZ9j-JeaG-64">
          <mxGeometry relative="1" as="geometry" />
        </mxCell>
        <mxCell id="QvcRcpZz988IZ9j-JeaG-63" value="Deliver and upload .whl package via data plane assist service" style="rounded=1;whiteSpace=wrap;html=1;" vertex="1" parent="1">
          <mxGeometry x="2660" y="190" width="120" height="60" as="geometry" />
        </mxCell>
        <mxCell id="QvcRcpZz988IZ9j-JeaG-69" value="" style="edgeStyle=orthogonalEdgeStyle;rounded=0;orthogonalLoop=1;jettySize=auto;html=1;" edge="1" parent="1" source="QvcRcpZz988IZ9j-JeaG-64" target="QvcRcpZz988IZ9j-JeaG-65">
          <mxGeometry relative="1" as="geometry" />
        </mxCell>
        <mxCell id="QvcRcpZz988IZ9j-JeaG-64" value="Archive logs&amp;nbsp;&lt;div&gt;(Save logs to s3)&lt;/div&gt;" style="rounded=1;whiteSpace=wrap;html=1;" vertex="1" parent="1">
          <mxGeometry x="2660" y="395" width="120" height="60" as="geometry" />
        </mxCell>
        <mxCell id="QvcRcpZz988IZ9j-JeaG-70" value="" style="edgeStyle=orthogonalEdgeStyle;rounded=0;orthogonalLoop=1;jettySize=auto;html=1;" edge="1" parent="1" source="QvcRcpZz988IZ9j-JeaG-65" target="QvcRcpZz988IZ9j-JeaG-66">
          <mxGeometry relative="1" as="geometry" />
        </mxCell>
        <mxCell id="QvcRcpZz988IZ9j-JeaG-65" value="Sync artifacts to s3&amp;nbsp;&lt;div&gt;Replace new build artifacts&lt;/div&gt;" style="rounded=1;whiteSpace=wrap;html=1;" vertex="1" parent="1">
          <mxGeometry x="2830" y="395" width="120" height="60" as="geometry" />
        </mxCell>
        <mxCell id="QvcRcpZz988IZ9j-JeaG-66" value="Update the project service with build details." style="rounded=1;whiteSpace=wrap;html=1;" vertex="1" parent="1">
          <mxGeometry x="2990" y="395" width="120" height="60" as="geometry" />
        </mxCell>
        <mxCell id="QvcRcpZz988IZ9j-JeaG-72" value="Post build process" style="text;html=1;align=center;verticalAlign=middle;whiteSpace=wrap;rounded=0;" vertex="1" parent="1">
          <mxGeometry x="2620" y="350" width="110" height="30" as="geometry" />
        </mxCell>
        <mxCell id="QvcRcpZz988IZ9j-JeaG-74" value="Build process" style="text;html=1;align=center;verticalAlign=middle;whiteSpace=wrap;rounded=0;" vertex="1" parent="1">
          <mxGeometry x="2620" y="40" width="100" height="30" as="geometry" />
        </mxCell>
        <mxCell id="QvcRcpZz988IZ9j-JeaG-78" value="Jenkins (App staging process)" style="text;html=1;align=center;verticalAlign=middle;whiteSpace=wrap;rounded=0;" vertex="1" parent="1">
          <mxGeometry x="2590" width="110" height="30" as="geometry" />
        </mxCell>
        <mxCell id="QvcRcpZz988IZ9j-JeaG-81" value="Frontend" style="text;html=1;align=center;verticalAlign=middle;whiteSpace=wrap;rounded=0;" vertex="1" parent="1">
          <mxGeometry y="-50" width="60" height="30" as="geometry" />
        </mxCell>
        <mxCell id="QvcRcpZz988IZ9j-JeaG-82" value="Project Admin" style="text;html=1;align=center;verticalAlign=middle;whiteSpace=wrap;rounded=0;" vertex="1" parent="1">
          <mxGeometry x="920" y="-80" width="100" height="30" as="geometry" />
        </mxCell>
        <mxCell id="QvcRcpZz988IZ9j-JeaG-83" value="" style="endArrow=none;dashed=1;html=1;dashPattern=1 3;strokeWidth=2;rounded=0;exitX=0.665;exitY=0.05;exitDx=0;exitDy=0;exitPerimeter=0;entryX=0;entryY=0.25;entryDx=0;entryDy=0;" edge="1" parent="1" source="QvcRcpZz988IZ9j-JeaG-29" target="QvcRcpZz988IZ9j-JeaG-77">
          <mxGeometry width="50" height="50" relative="1" as="geometry">
            <mxPoint x="2900" y="480" as="sourcePoint" />
            <mxPoint x="2950" y="430" as="targetPoint" />
            <Array as="points">
              <mxPoint x="2250" y="150" />
            </Array>
          </mxGeometry>
        </mxCell>
        <mxCell id="QvcRcpZz988IZ9j-JeaG-84" value="Launch App" style="rounded=1;whiteSpace=wrap;html=1;" vertex="1" parent="1">
          <mxGeometry x="827" y="1490" width="120" height="60" as="geometry" />
        </mxCell>
        <mxCell id="QvcRcpZz988IZ9j-JeaG-87" value="" style="edgeStyle=orthogonalEdgeStyle;rounded=0;orthogonalLoop=1;jettySize=auto;html=1;" edge="1" parent="1" source="QvcRcpZz988IZ9j-JeaG-85" target="QvcRcpZz988IZ9j-JeaG-86">
          <mxGeometry relative="1" as="geometry" />
        </mxCell>
        <mxCell id="QvcRcpZz988IZ9j-JeaG-88" value="Failure" style="edgeLabel;html=1;align=center;verticalAlign=middle;resizable=0;points=[];" connectable="0" vertex="1" parent="QvcRcpZz988IZ9j-JeaG-87">
          <mxGeometry x="-0.4032" y="-2" relative="1" as="geometry">
            <mxPoint as="offset" />
          </mxGeometry>
        </mxCell>
        <mxCell id="QvcRcpZz988IZ9j-JeaG-103" value="" style="edgeStyle=orthogonalEdgeStyle;rounded=0;orthogonalLoop=1;jettySize=auto;html=1;" edge="1" parent="1" source="QvcRcpZz988IZ9j-JeaG-85" target="QvcRcpZz988IZ9j-JeaG-89">
          <mxGeometry relative="1" as="geometry" />
        </mxCell>
        <mxCell id="QvcRcpZz988IZ9j-JeaG-85" value="Authorization&lt;div&gt;(Token and username)&lt;/div&gt;" style="rounded=1;whiteSpace=wrap;html=1;" vertex="1" parent="1">
          <mxGeometry x="1108" y="1490" width="139" height="60" as="geometry" />
        </mxCell>
        <mxCell id="QvcRcpZz988IZ9j-JeaG-86" value="Raise Respective status code when failed" style="text;html=1;align=center;verticalAlign=middle;whiteSpace=wrap;rounded=0;" vertex="1" parent="1">
          <mxGeometry x="1137" y="1400" width="100" height="30" as="geometry" />
        </mxCell>
        <mxCell id="QvcRcpZz988IZ9j-JeaG-91" value="" style="edgeStyle=orthogonalEdgeStyle;rounded=0;orthogonalLoop=1;jettySize=auto;html=1;" edge="1" parent="1" source="QvcRcpZz988IZ9j-JeaG-89" target="QvcRcpZz988IZ9j-JeaG-90">
          <mxGeometry relative="1" as="geometry" />
        </mxCell>
        <mxCell id="QvcRcpZz988IZ9j-JeaG-92" value="Failure" style="edgeLabel;html=1;align=center;verticalAlign=middle;resizable=0;points=[];" connectable="0" vertex="1" parent="QvcRcpZz988IZ9j-JeaG-91">
          <mxGeometry x="-0.1718" y="-3" relative="1" as="geometry">
            <mxPoint as="offset" />
          </mxGeometry>
        </mxCell>
        <mxCell id="QvcRcpZz988IZ9j-JeaG-104" value="" style="edgeStyle=orthogonalEdgeStyle;rounded=0;orthogonalLoop=1;jettySize=auto;html=1;" edge="1" parent="1" source="QvcRcpZz988IZ9j-JeaG-89" target="QvcRcpZz988IZ9j-JeaG-93">
          <mxGeometry relative="1" as="geometry" />
        </mxCell>
        <mxCell id="QvcRcpZz988IZ9j-JeaG-89" value="Check app exists using appID" style="rounded=1;whiteSpace=wrap;html=1;" vertex="1" parent="1">
          <mxGeometry x="1307" y="1490" width="120" height="60" as="geometry" />
        </mxCell>
        <mxCell id="QvcRcpZz988IZ9j-JeaG-90" value="Raise respective HTTP error when failure&amp;nbsp;" style="text;html=1;align=center;verticalAlign=middle;whiteSpace=wrap;rounded=0;" vertex="1" parent="1">
          <mxGeometry x="1307" y="1390" width="120" height="30" as="geometry" />
        </mxCell>
        <mxCell id="QvcRcpZz988IZ9j-JeaG-96" value="" style="edgeStyle=orthogonalEdgeStyle;rounded=0;orthogonalLoop=1;jettySize=auto;html=1;" edge="1" parent="1" source="QvcRcpZz988IZ9j-JeaG-93" target="QvcRcpZz988IZ9j-JeaG-95">
          <mxGeometry relative="1" as="geometry" />
        </mxCell>
        <mxCell id="QvcRcpZz988IZ9j-JeaG-97" value="Failure" style="edgeLabel;html=1;align=center;verticalAlign=middle;resizable=0;points=[];" connectable="0" vertex="1" parent="QvcRcpZz988IZ9j-JeaG-96">
          <mxGeometry x="-0.286" y="2" relative="1" as="geometry">
            <mxPoint as="offset" />
          </mxGeometry>
        </mxCell>
        <mxCell id="QvcRcpZz988IZ9j-JeaG-105" value="" style="edgeStyle=orthogonalEdgeStyle;rounded=0;orthogonalLoop=1;jettySize=auto;html=1;" edge="1" parent="1" source="QvcRcpZz988IZ9j-JeaG-93" target="QvcRcpZz988IZ9j-JeaG-98">
          <mxGeometry relative="1" as="geometry" />
        </mxCell>
        <mxCell id="QvcRcpZz988IZ9j-JeaG-93" value="Check build exists and belongs to app" style="rounded=1;whiteSpace=wrap;html=1;" vertex="1" parent="1">
          <mxGeometry x="1467" y="1490" width="120" height="60" as="geometry" />
        </mxCell>
        <mxCell id="QvcRcpZz988IZ9j-JeaG-95" value="Raise respective HTTP error when failure&amp;nbsp;" style="text;html=1;align=center;verticalAlign=middle;whiteSpace=wrap;rounded=0;" vertex="1" parent="1">
          <mxGeometry x="1467" y="1390" width="120" height="30" as="geometry" />
        </mxCell>
        <mxCell id="QvcRcpZz988IZ9j-JeaG-110" value="" style="edgeStyle=orthogonalEdgeStyle;rounded=0;orthogonalLoop=1;jettySize=auto;html=1;" edge="1" parent="1" source="QvcRcpZz988IZ9j-JeaG-98" target="QvcRcpZz988IZ9j-JeaG-106">
          <mxGeometry relative="1" as="geometry" />
        </mxCell>
        <mxCell id="QvcRcpZz988IZ9j-JeaG-98" value="build[app_id] != app[app_id]" style="rhombus;whiteSpace=wrap;html=1;" vertex="1" parent="1">
          <mxGeometry x="1617" y="1480" width="180" height="80" as="geometry" />
        </mxCell>
        <mxCell id="QvcRcpZz988IZ9j-JeaG-99" value="400 Build does not belong to app" style="text;html=1;align=center;verticalAlign=middle;whiteSpace=wrap;rounded=0;" vertex="1" parent="1">
          <mxGeometry x="1657" y="1610" width="120" height="30" as="geometry" />
        </mxCell>
        <mxCell id="QvcRcpZz988IZ9j-JeaG-100" style="edgeStyle=orthogonalEdgeStyle;rounded=0;orthogonalLoop=1;jettySize=auto;html=1;entryX=0.415;entryY=-0.108;entryDx=0;entryDy=0;entryPerimeter=0;" edge="1" parent="1" source="QvcRcpZz988IZ9j-JeaG-98" target="QvcRcpZz988IZ9j-JeaG-99">
          <mxGeometry relative="1" as="geometry" />
        </mxCell>
        <mxCell id="QvcRcpZz988IZ9j-JeaG-101" value="True" style="edgeLabel;html=1;align=center;verticalAlign=middle;resizable=0;points=[];" connectable="0" vertex="1" parent="QvcRcpZz988IZ9j-JeaG-100">
          <mxGeometry x="0.1427" relative="1" as="geometry">
            <mxPoint as="offset" />
          </mxGeometry>
        </mxCell>
        <mxCell id="QvcRcpZz988IZ9j-JeaG-102" value="" style="endArrow=none;dashed=1;html=1;dashPattern=1 3;strokeWidth=2;rounded=0;exitX=1;exitY=0.5;exitDx=0;exitDy=0;" edge="1" parent="1" source="QvcRcpZz988IZ9j-JeaG-84" target="QvcRcpZz988IZ9j-JeaG-85">
          <mxGeometry width="50" height="50" relative="1" as="geometry">
            <mxPoint x="1187" y="1690" as="sourcePoint" />
            <mxPoint x="1237" y="1640" as="targetPoint" />
            <Array as="points">
              <mxPoint x="1027" y="1520" />
            </Array>
          </mxGeometry>
        </mxCell>
        <mxCell id="QvcRcpZz988IZ9j-JeaG-108" value="" style="edgeStyle=orthogonalEdgeStyle;rounded=0;orthogonalLoop=1;jettySize=auto;html=1;" edge="1" parent="1" source="QvcRcpZz988IZ9j-JeaG-106" target="QvcRcpZz988IZ9j-JeaG-107">
          <mxGeometry relative="1" as="geometry" />
        </mxCell>
        <mxCell id="QvcRcpZz988IZ9j-JeaG-109" value="True" style="edgeLabel;html=1;align=center;verticalAlign=middle;resizable=0;points=[];" connectable="0" vertex="1" parent="QvcRcpZz988IZ9j-JeaG-108">
          <mxGeometry x="-0.4663" y="1" relative="1" as="geometry">
            <mxPoint as="offset" />
          </mxGeometry>
        </mxCell>
        <mxCell id="QvcRcpZz988IZ9j-JeaG-113" value="" style="edgeStyle=orthogonalEdgeStyle;rounded=0;orthogonalLoop=1;jettySize=auto;html=1;" edge="1" parent="1" source="QvcRcpZz988IZ9j-JeaG-106" target="QvcRcpZz988IZ9j-JeaG-111">
          <mxGeometry relative="1" as="geometry" />
        </mxCell>
        <mxCell id="QvcRcpZz988IZ9j-JeaG-106" value="build[build_status] !=&quot;success&quot;" style="rhombus;whiteSpace=wrap;html=1;" vertex="1" parent="1">
          <mxGeometry x="1837" y="1480" width="230" height="80" as="geometry" />
        </mxCell>
        <mxCell id="QvcRcpZz988IZ9j-JeaG-107" value="400 Can&#39;t deploy the app" style="text;html=1;align=center;verticalAlign=middle;whiteSpace=wrap;rounded=0;" vertex="1" parent="1">
          <mxGeometry x="1897" y="1610" width="110" height="30" as="geometry" />
        </mxCell>
        <mxCell id="QvcRcpZz988IZ9j-JeaG-114" value="" style="edgeStyle=orthogonalEdgeStyle;rounded=0;orthogonalLoop=1;jettySize=auto;html=1;" edge="1" parent="1" source="QvcRcpZz988IZ9j-JeaG-111" target="QvcRcpZz988IZ9j-JeaG-112">
          <mxGeometry relative="1" as="geometry" />
        </mxCell>
        <mxCell id="QvcRcpZz988IZ9j-JeaG-111" value="Creating the service name for the particular app" style="rounded=1;whiteSpace=wrap;html=1;" vertex="1" parent="1">
          <mxGeometry x="2127" y="1490" width="210" height="60" as="geometry" />
        </mxCell>
        <mxCell id="QvcRcpZz988IZ9j-JeaG-116" value="" style="edgeStyle=orthogonalEdgeStyle;rounded=0;orthogonalLoop=1;jettySize=auto;html=1;" edge="1" parent="1" source="QvcRcpZz988IZ9j-JeaG-112" target="QvcRcpZz988IZ9j-JeaG-115">
          <mxGeometry relative="1" as="geometry" />
        </mxCell>
        <mxCell id="QvcRcpZz988IZ9j-JeaG-112" value="Get deployment for particular project and app" style="rounded=1;whiteSpace=wrap;html=1;" vertex="1" parent="1">
          <mxGeometry x="2172" y="1610" width="120" height="60" as="geometry" />
        </mxCell>
        <mxCell id="QvcRcpZz988IZ9j-JeaG-118" style="edgeStyle=orthogonalEdgeStyle;rounded=0;orthogonalLoop=1;jettySize=auto;html=1;entryX=1;entryY=0.5;entryDx=0;entryDy=0;" edge="1" parent="1" source="QvcRcpZz988IZ9j-JeaG-115" target="QvcRcpZz988IZ9j-JeaG-117">
          <mxGeometry relative="1" as="geometry" />
        </mxCell>
        <mxCell id="QvcRcpZz988IZ9j-JeaG-119" value="True" style="edgeLabel;html=1;align=center;verticalAlign=middle;resizable=0;points=[];" connectable="0" vertex="1" parent="QvcRcpZz988IZ9j-JeaG-118">
          <mxGeometry x="-0.3309" y="1" relative="1" as="geometry">
            <mxPoint as="offset" />
          </mxGeometry>
        </mxCell>
        <mxCell id="QvcRcpZz988IZ9j-JeaG-135" value="" style="edgeStyle=orthogonalEdgeStyle;rounded=0;orthogonalLoop=1;jettySize=auto;html=1;" edge="1" parent="1" source="QvcRcpZz988IZ9j-JeaG-115" target="QvcRcpZz988IZ9j-JeaG-120">
          <mxGeometry relative="1" as="geometry" />
        </mxCell>
        <mxCell id="QvcRcpZz988IZ9j-JeaG-115" value="deployment is None?" style="rhombus;whiteSpace=wrap;html=1;" vertex="1" parent="1">
          <mxGeometry x="2087" y="1720" width="280" height="80" as="geometry" />
        </mxCell>
        <mxCell id="QvcRcpZz988IZ9j-JeaG-117" value="Add deployment to DB with project_id, build_id and app_id" style="rounded=1;whiteSpace=wrap;html=1;" vertex="1" parent="1">
          <mxGeometry x="1837" y="1730" width="120" height="60" as="geometry" />
        </mxCell>
        <mxCell id="QvcRcpZz988IZ9j-JeaG-134" value="" style="edgeStyle=orthogonalEdgeStyle;rounded=0;orthogonalLoop=1;jettySize=auto;html=1;" edge="1" parent="1" source="QvcRcpZz988IZ9j-JeaG-120" target="QvcRcpZz988IZ9j-JeaG-123">
          <mxGeometry relative="1" as="geometry" />
        </mxCell>
        <mxCell id="QvcRcpZz988IZ9j-JeaG-120" value="Get current deployment&amp;nbsp;" style="rounded=1;whiteSpace=wrap;html=1;" vertex="1" parent="1">
          <mxGeometry x="2157" y="1850" width="120" height="60" as="geometry" />
        </mxCell>
        <mxCell id="QvcRcpZz988IZ9j-JeaG-121" value="" style="edgeStyle=orthogonalEdgeStyle;rounded=0;orthogonalLoop=1;jettySize=auto;html=1;" edge="1" parent="1" source="QvcRcpZz988IZ9j-JeaG-123" target="QvcRcpZz988IZ9j-JeaG-124">
          <mxGeometry relative="1" as="geometry" />
        </mxCell>
        <mxCell id="QvcRcpZz988IZ9j-JeaG-122" value="Failure" style="edgeLabel;html=1;align=center;verticalAlign=middle;resizable=0;points=[];" connectable="0" vertex="1" parent="QvcRcpZz988IZ9j-JeaG-121">
          <mxGeometry x="-0.1718" y="-3" relative="1" as="geometry">
            <mxPoint as="offset" />
          </mxGeometry>
        </mxCell>
        <mxCell id="QvcRcpZz988IZ9j-JeaG-133" value="" style="edgeStyle=orthogonalEdgeStyle;rounded=0;orthogonalLoop=1;jettySize=auto;html=1;" edge="1" parent="1" source="QvcRcpZz988IZ9j-JeaG-123" target="QvcRcpZz988IZ9j-JeaG-127">
          <mxGeometry relative="1" as="geometry" />
        </mxCell>
        <mxCell id="QvcRcpZz988IZ9j-JeaG-123" value="Check app exists using appID" style="rounded=1;whiteSpace=wrap;html=1;" vertex="1" parent="1">
          <mxGeometry x="2159" y="1940" width="120" height="60" as="geometry" />
        </mxCell>
        <mxCell id="QvcRcpZz988IZ9j-JeaG-124" value="Raise respective HTTP error when failure&amp;nbsp;" style="text;html=1;align=center;verticalAlign=middle;whiteSpace=wrap;rounded=0;" vertex="1" parent="1">
          <mxGeometry x="2337" y="1880" width="120" height="30" as="geometry" />
        </mxCell>
        <mxCell id="QvcRcpZz988IZ9j-JeaG-129" value="" style="edgeStyle=orthogonalEdgeStyle;rounded=0;orthogonalLoop=1;jettySize=auto;html=1;" edge="1" parent="1" source="QvcRcpZz988IZ9j-JeaG-127" target="QvcRcpZz988IZ9j-JeaG-128">
          <mxGeometry relative="1" as="geometry" />
        </mxCell>
        <mxCell id="QvcRcpZz988IZ9j-JeaG-130" value="Failure" style="edgeLabel;html=1;align=center;verticalAlign=middle;resizable=0;points=[];" connectable="0" vertex="1" parent="QvcRcpZz988IZ9j-JeaG-129">
          <mxGeometry x="-0.0378" y="1" relative="1" as="geometry">
            <mxPoint as="offset" />
          </mxGeometry>
        </mxCell>
        <mxCell id="QvcRcpZz988IZ9j-JeaG-132" value="" style="edgeStyle=orthogonalEdgeStyle;rounded=0;orthogonalLoop=1;jettySize=auto;html=1;" edge="1" parent="1" source="QvcRcpZz988IZ9j-JeaG-127" target="QvcRcpZz988IZ9j-JeaG-131">
          <mxGeometry relative="1" as="geometry" />
        </mxCell>
        <mxCell id="QvcRcpZz988IZ9j-JeaG-127" value="Fetch the build detail for app_id" style="rounded=1;whiteSpace=wrap;html=1;" vertex="1" parent="1">
          <mxGeometry x="2159" y="2040" width="120" height="60" as="geometry" />
        </mxCell>
        <mxCell id="QvcRcpZz988IZ9j-JeaG-128" value="Raise respective HTTP error when failure&amp;nbsp;" style="text;html=1;align=center;verticalAlign=middle;whiteSpace=wrap;rounded=0;" vertex="1" parent="1">
          <mxGeometry x="2387" y="2030" width="120" height="30" as="geometry" />
        </mxCell>
        <mxCell id="QvcRcpZz988IZ9j-JeaG-137" value="" style="edgeStyle=orthogonalEdgeStyle;rounded=0;orthogonalLoop=1;jettySize=auto;html=1;" edge="1" parent="1" source="QvcRcpZz988IZ9j-JeaG-131" target="QvcRcpZz988IZ9j-JeaG-136">
          <mxGeometry relative="1" as="geometry" />
        </mxCell>
        <mxCell id="QvcRcpZz988IZ9j-JeaG-138" value="True" style="edgeLabel;html=1;align=center;verticalAlign=middle;resizable=0;points=[];" connectable="0" vertex="1" parent="QvcRcpZz988IZ9j-JeaG-137">
          <mxGeometry x="-0.1841" y="3" relative="1" as="geometry">
            <mxPoint as="offset" />
          </mxGeometry>
        </mxCell>
        <mxCell id="QvcRcpZz988IZ9j-JeaG-158" value="" style="edgeStyle=orthogonalEdgeStyle;rounded=0;orthogonalLoop=1;jettySize=auto;html=1;" edge="1" parent="1" source="QvcRcpZz988IZ9j-JeaG-131" target="QvcRcpZz988IZ9j-JeaG-139">
          <mxGeometry relative="1" as="geometry" />
        </mxCell>
        <mxCell id="QvcRcpZz988IZ9j-JeaG-131" value="build[app_id] != app_id" style="rhombus;whiteSpace=wrap;html=1;" vertex="1" parent="1">
          <mxGeometry x="2114" y="2150" width="210" height="80" as="geometry" />
        </mxCell>
        <mxCell id="QvcRcpZz988IZ9j-JeaG-136" value="400 Build with build_id does not belong to app_id" style="rounded=1;whiteSpace=wrap;html=1;" vertex="1" parent="1">
          <mxGeometry x="1907" y="2160" width="120" height="60" as="geometry" />
        </mxCell>
        <mxCell id="QvcRcpZz988IZ9j-JeaG-159" value="" style="edgeStyle=orthogonalEdgeStyle;rounded=0;orthogonalLoop=1;jettySize=auto;html=1;" edge="1" parent="1" source="QvcRcpZz988IZ9j-JeaG-139" target="QvcRcpZz988IZ9j-JeaG-140">
          <mxGeometry relative="1" as="geometry" />
        </mxCell>
        <mxCell id="QvcRcpZz988IZ9j-JeaG-139" value="Get deployment for a particular app_id and build_id" style="rounded=1;whiteSpace=wrap;html=1;" vertex="1" parent="1">
          <mxGeometry x="2159" y="2260" width="120" height="60" as="geometry" />
        </mxCell>
        <mxCell id="QvcRcpZz988IZ9j-JeaG-142" value="" style="edgeStyle=orthogonalEdgeStyle;rounded=0;orthogonalLoop=1;jettySize=auto;html=1;" edge="1" parent="1" source="QvcRcpZz988IZ9j-JeaG-140" target="QvcRcpZz988IZ9j-JeaG-141">
          <mxGeometry relative="1" as="geometry" />
        </mxCell>
        <mxCell id="QvcRcpZz988IZ9j-JeaG-140" value="if deployment?" style="rhombus;whiteSpace=wrap;html=1;" vertex="1" parent="1">
          <mxGeometry x="2089" y="2360" width="260" height="80" as="geometry" />
        </mxCell>
        <mxCell id="QvcRcpZz988IZ9j-JeaG-213" value="" style="edgeStyle=orthogonalEdgeStyle;rounded=0;orthogonalLoop=1;jettySize=auto;html=1;" edge="1" parent="1" source="QvcRcpZz988IZ9j-JeaG-141" target="QvcRcpZz988IZ9j-JeaG-212">
          <mxGeometry relative="1" as="geometry" />
        </mxCell>
        <mxCell id="QvcRcpZz988IZ9j-JeaG-141" value="Check deployment status" style="rounded=1;whiteSpace=wrap;html=1;" vertex="1" parent="1">
          <mxGeometry x="1892" y="2370" width="120" height="60" as="geometry" />
        </mxCell>
        <mxCell id="QvcRcpZz988IZ9j-JeaG-149" value="" style="edgeStyle=orthogonalEdgeStyle;rounded=0;orthogonalLoop=1;jettySize=auto;html=1;" edge="1" parent="1" source="QvcRcpZz988IZ9j-JeaG-143" target="QvcRcpZz988IZ9j-JeaG-148">
          <mxGeometry relative="1" as="geometry" />
        </mxCell>
        <mxCell id="QvcRcpZz988IZ9j-JeaG-143" value="Create instance of k8 Client&amp;nbsp;" style="rounded=1;whiteSpace=wrap;html=1;" vertex="1" parent="1">
          <mxGeometry x="2487" y="2690" width="120" height="60" as="geometry" />
        </mxCell>
        <mxCell id="QvcRcpZz988IZ9j-JeaG-151" value="" style="edgeStyle=orthogonalEdgeStyle;rounded=0;orthogonalLoop=1;jettySize=auto;html=1;" edge="1" parent="1" source="QvcRcpZz988IZ9j-JeaG-148" target="QvcRcpZz988IZ9j-JeaG-150">
          <mxGeometry relative="1" as="geometry" />
        </mxCell>
        <mxCell id="QvcRcpZz988IZ9j-JeaG-153" value="False" style="edgeLabel;html=1;align=center;verticalAlign=middle;resizable=0;points=[];" connectable="0" vertex="1" parent="QvcRcpZz988IZ9j-JeaG-151">
          <mxGeometry x="-0.2978" y="2" relative="1" as="geometry">
            <mxPoint as="offset" />
          </mxGeometry>
        </mxCell>
        <mxCell id="QvcRcpZz988IZ9j-JeaG-155" value="" style="edgeStyle=orthogonalEdgeStyle;rounded=0;orthogonalLoop=1;jettySize=auto;html=1;" edge="1" parent="1" source="QvcRcpZz988IZ9j-JeaG-148" target="QvcRcpZz988IZ9j-JeaG-156">
          <mxGeometry relative="1" as="geometry">
            <mxPoint x="2267" y="2730" as="targetPoint" />
          </mxGeometry>
        </mxCell>
        <mxCell id="QvcRcpZz988IZ9j-JeaG-148" value="Check ksvc already exists or not" style="rhombus;whiteSpace=wrap;html=1;" vertex="1" parent="1">
          <mxGeometry x="2337" y="2680" width="105" height="80" as="geometry" />
        </mxCell>
        <mxCell id="QvcRcpZz988IZ9j-JeaG-150" value="Service not found.&lt;div&gt;- Returns None&lt;/div&gt;" style="text;html=1;align=center;verticalAlign=middle;whiteSpace=wrap;rounded=0;" vertex="1" parent="1">
          <mxGeometry x="2314.5" y="2550" width="150" height="30" as="geometry" />
        </mxCell>
        <mxCell id="QvcRcpZz988IZ9j-JeaG-160" value="True" style="edgeStyle=orthogonalEdgeStyle;rounded=0;orthogonalLoop=1;jettySize=auto;html=1;" edge="1" parent="1" source="QvcRcpZz988IZ9j-JeaG-156" target="QvcRcpZz988IZ9j-JeaG-157">
          <mxGeometry relative="1" as="geometry" />
        </mxCell>
        <mxCell id="QvcRcpZz988IZ9j-JeaG-162" value="" style="edgeStyle=orthogonalEdgeStyle;rounded=0;orthogonalLoop=1;jettySize=auto;html=1;" edge="1" parent="1" source="QvcRcpZz988IZ9j-JeaG-156" target="QvcRcpZz988IZ9j-JeaG-161">
          <mxGeometry relative="1" as="geometry" />
        </mxCell>
        <mxCell id="QvcRcpZz988IZ9j-JeaG-163" value="False" style="edgeLabel;html=1;align=center;verticalAlign=middle;resizable=0;points=[];" connectable="0" vertex="1" parent="QvcRcpZz988IZ9j-JeaG-162">
          <mxGeometry x="-0.2527" y="-2" relative="1" as="geometry">
            <mxPoint as="offset" />
          </mxGeometry>
        </mxCell>
        <mxCell id="QvcRcpZz988IZ9j-JeaG-156" value="status_conditions" style="rhombus;whiteSpace=wrap;html=1;" vertex="1" parent="1">
          <mxGeometry x="2087" y="2680" width="200" height="80" as="geometry" />
        </mxCell>
        <mxCell id="QvcRcpZz988IZ9j-JeaG-157" value="status_conditions array if all the dictionaries type belongs to [Ready, ConfigurationsReady, RoutesReady] status is True initialized is_servie_deployment_ready to True else False" style="rounded=1;whiteSpace=wrap;html=1;" vertex="1" parent="1">
          <mxGeometry x="1718" y="2690" width="300" height="60" as="geometry" />
        </mxCell>
        <mxCell id="QvcRcpZz988IZ9j-JeaG-161" value="deployment_status=deployement_inprogress" style="rounded=1;whiteSpace=wrap;html=1;" vertex="1" parent="1">
          <mxGeometry x="2067" y="2830" width="240" height="60" as="geometry" />
        </mxCell>
        <mxCell id="QvcRcpZz988IZ9j-JeaG-169" value="" style="edgeStyle=orthogonalEdgeStyle;rounded=0;orthogonalLoop=1;jettySize=auto;html=1;" edge="1" parent="1" source="QvcRcpZz988IZ9j-JeaG-165" target="QvcRcpZz988IZ9j-JeaG-168">
          <mxGeometry relative="1" as="geometry" />
        </mxCell>
        <mxCell id="QvcRcpZz988IZ9j-JeaG-178" value="True" style="edgeLabel;html=1;align=center;verticalAlign=middle;resizable=0;points=[];" connectable="0" vertex="1" parent="QvcRcpZz988IZ9j-JeaG-169">
          <mxGeometry x="-0.0576" relative="1" as="geometry">
            <mxPoint as="offset" />
          </mxGeometry>
        </mxCell>
        <mxCell id="QvcRcpZz988IZ9j-JeaG-180" value="" style="edgeStyle=orthogonalEdgeStyle;rounded=0;orthogonalLoop=1;jettySize=auto;html=1;" edge="1" parent="1" source="QvcRcpZz988IZ9j-JeaG-165" target="QvcRcpZz988IZ9j-JeaG-179">
          <mxGeometry relative="1" as="geometry" />
        </mxCell>
        <mxCell id="QvcRcpZz988IZ9j-JeaG-181" value="False" style="edgeLabel;html=1;align=center;verticalAlign=middle;resizable=0;points=[];" connectable="0" vertex="1" parent="QvcRcpZz988IZ9j-JeaG-180">
          <mxGeometry x="-0.0219" y="2" relative="1" as="geometry">
            <mxPoint as="offset" />
          </mxGeometry>
        </mxCell>
        <mxCell id="QvcRcpZz988IZ9j-JeaG-165" value="is_service_deployment_ready" style="rhombus;whiteSpace=wrap;html=1;" vertex="1" parent="1">
          <mxGeometry x="1387" y="2990" width="380" height="60" as="geometry" />
        </mxCell>
        <mxCell id="QvcRcpZz988IZ9j-JeaG-166" style="edgeStyle=orthogonalEdgeStyle;rounded=0;orthogonalLoop=1;jettySize=auto;html=1;entryX=0.471;entryY=0;entryDx=0;entryDy=0;entryPerimeter=0;" edge="1" parent="1" source="QvcRcpZz988IZ9j-JeaG-157" target="QvcRcpZz988IZ9j-JeaG-165">
          <mxGeometry relative="1" as="geometry" />
        </mxCell>
        <mxCell id="QvcRcpZz988IZ9j-JeaG-167" style="edgeStyle=orthogonalEdgeStyle;rounded=0;orthogonalLoop=1;jettySize=auto;html=1;entryX=0.469;entryY=0.045;entryDx=0;entryDy=0;entryPerimeter=0;exitX=0;exitY=0.5;exitDx=0;exitDy=0;" edge="1" parent="1" source="QvcRcpZz988IZ9j-JeaG-161" target="QvcRcpZz988IZ9j-JeaG-165">
          <mxGeometry relative="1" as="geometry">
            <mxPoint x="1787" y="2850" as="sourcePoint" />
            <Array as="points">
              <mxPoint x="2067" y="2870" />
              <mxPoint x="1565" y="2870" />
            </Array>
          </mxGeometry>
        </mxCell>
        <mxCell id="QvcRcpZz988IZ9j-JeaG-171" value="" style="edgeStyle=orthogonalEdgeStyle;rounded=0;orthogonalLoop=1;jettySize=auto;html=1;" edge="1" parent="1" source="QvcRcpZz988IZ9j-JeaG-168" target="QvcRcpZz988IZ9j-JeaG-170">
          <mxGeometry relative="1" as="geometry" />
        </mxCell>
        <mxCell id="QvcRcpZz988IZ9j-JeaG-168" value="fetch local_service_url" style="rounded=1;whiteSpace=wrap;html=1;" vertex="1" parent="1">
          <mxGeometry x="1847" y="2990" width="120" height="60" as="geometry" />
        </mxCell>
        <mxCell id="QvcRcpZz988IZ9j-JeaG-173" value="" style="edgeStyle=orthogonalEdgeStyle;rounded=0;orthogonalLoop=1;jettySize=auto;html=1;" edge="1" parent="1" source="QvcRcpZz988IZ9j-JeaG-170" target="QvcRcpZz988IZ9j-JeaG-172">
          <mxGeometry relative="1" as="geometry" />
        </mxCell>
        <mxCell id="QvcRcpZz988IZ9j-JeaG-174" value="True" style="edgeLabel;html=1;align=center;verticalAlign=middle;resizable=0;points=[];" connectable="0" vertex="1" parent="QvcRcpZz988IZ9j-JeaG-173">
          <mxGeometry x="-0.4675" relative="1" as="geometry">
            <mxPoint as="offset" />
          </mxGeometry>
        </mxCell>
        <mxCell id="QvcRcpZz988IZ9j-JeaG-176" value="" style="edgeStyle=orthogonalEdgeStyle;rounded=0;orthogonalLoop=1;jettySize=auto;html=1;" edge="1" parent="1" source="QvcRcpZz988IZ9j-JeaG-170" target="QvcRcpZz988IZ9j-JeaG-175">
          <mxGeometry relative="1" as="geometry" />
        </mxCell>
        <mxCell id="QvcRcpZz988IZ9j-JeaG-177" value="False" style="edgeLabel;html=1;align=center;verticalAlign=middle;resizable=0;points=[];" connectable="0" vertex="1" parent="QvcRcpZz988IZ9j-JeaG-176">
          <mxGeometry x="0.1424" y="-1" relative="1" as="geometry">
            <mxPoint as="offset" />
          </mxGeometry>
        </mxCell>
        <mxCell id="QvcRcpZz988IZ9j-JeaG-170" value="local_service_url?" style="rhombus;whiteSpace=wrap;html=1;" vertex="1" parent="1">
          <mxGeometry x="2017" y="2980" width="210" height="80" as="geometry" />
        </mxCell>
        <mxCell id="QvcRcpZz988IZ9j-JeaG-172" value="- Get deployment URL&lt;br&gt;-deployment_status =&quot;deployed&quot;" style="rounded=1;whiteSpace=wrap;html=1;align=left;" vertex="1" parent="1">
          <mxGeometry x="2294" y="2990" width="183" height="60" as="geometry" />
        </mxCell>
        <mxCell id="QvcRcpZz988IZ9j-JeaG-175" value="deployment_status=&quot;&lt;span style=&quot;text-align: left;&quot;&gt;deployment_failed&lt;/span&gt;&quot;" style="rounded=1;whiteSpace=wrap;html=1;" vertex="1" parent="1">
          <mxGeometry x="2014.5" y="3110" width="265" height="60" as="geometry" />
        </mxCell>
        <mxCell id="QvcRcpZz988IZ9j-JeaG-179" value="Check for status_conditions" style="rounded=1;whiteSpace=wrap;html=1;" vertex="1" parent="1">
          <mxGeometry x="1457" y="3110" width="250" height="40" as="geometry" />
        </mxCell>
        <mxCell id="QvcRcpZz988IZ9j-JeaG-206" value="" style="edgeStyle=orthogonalEdgeStyle;rounded=0;orthogonalLoop=1;jettySize=auto;html=1;" edge="1" parent="1" source="QvcRcpZz988IZ9j-JeaG-182" target="QvcRcpZz988IZ9j-JeaG-183">
          <mxGeometry relative="1" as="geometry" />
        </mxCell>
        <mxCell id="QvcRcpZz988IZ9j-JeaG-182" value="iterate status_conditions with variable condition" style="rounded=1;whiteSpace=wrap;html=1;" vertex="1" parent="1">
          <mxGeometry x="1472" y="3180" width="210" height="60" as="geometry" />
        </mxCell>
        <mxCell id="QvcRcpZz988IZ9j-JeaG-186" value="" style="edgeStyle=orthogonalEdgeStyle;rounded=0;orthogonalLoop=1;jettySize=auto;html=1;" edge="1" parent="1" source="QvcRcpZz988IZ9j-JeaG-183" target="QvcRcpZz988IZ9j-JeaG-185">
          <mxGeometry relative="1" as="geometry" />
        </mxCell>
        <mxCell id="QvcRcpZz988IZ9j-JeaG-187" value="False" style="edgeLabel;html=1;align=center;verticalAlign=middle;resizable=0;points=[];" connectable="0" vertex="1" parent="QvcRcpZz988IZ9j-JeaG-186">
          <mxGeometry x="-0.2701" y="-3" relative="1" as="geometry">
            <mxPoint as="offset" />
          </mxGeometry>
        </mxCell>
        <mxCell id="QvcRcpZz988IZ9j-JeaG-191" value="" style="edgeStyle=orthogonalEdgeStyle;rounded=0;orthogonalLoop=1;jettySize=auto;html=1;" edge="1" parent="1" source="QvcRcpZz988IZ9j-JeaG-183" target="QvcRcpZz988IZ9j-JeaG-190">
          <mxGeometry relative="1" as="geometry" />
        </mxCell>
        <mxCell id="QvcRcpZz988IZ9j-JeaG-192" value="True" style="edgeLabel;html=1;align=center;verticalAlign=middle;resizable=0;points=[];" connectable="0" vertex="1" parent="QvcRcpZz988IZ9j-JeaG-191">
          <mxGeometry x="-0.1996" y="1" relative="1" as="geometry">
            <mxPoint as="offset" />
          </mxGeometry>
        </mxCell>
        <mxCell id="QvcRcpZz988IZ9j-JeaG-183" value="condition[&quot;status&quot;] ==False" style="rhombus;whiteSpace=wrap;html=1;" vertex="1" parent="1">
          <mxGeometry x="1457" y="3270" width="250" height="80" as="geometry" />
        </mxCell>
        <mxCell id="QvcRcpZz988IZ9j-JeaG-211" style="edgeStyle=orthogonalEdgeStyle;rounded=0;orthogonalLoop=1;jettySize=auto;html=1;" edge="1" parent="1" source="QvcRcpZz988IZ9j-JeaG-184">
          <mxGeometry relative="1" as="geometry">
            <mxPoint x="1907" y="3770" as="targetPoint" />
            <Array as="points">
              <mxPoint x="2267" y="3610" />
              <mxPoint x="2268" y="3610" />
              <mxPoint x="2268" y="3760" />
              <mxPoint x="2267" y="3760" />
              <mxPoint x="2267" y="3770" />
            </Array>
          </mxGeometry>
        </mxCell>
        <mxCell id="QvcRcpZz988IZ9j-JeaG-184" value="deployment_status=&quot;deployment_inprogress&quot;" style="rounded=1;whiteSpace=wrap;html=1;" vertex="1" parent="1">
          <mxGeometry x="2137" y="3280" width="260" height="60" as="geometry" />
        </mxCell>
        <mxCell id="QvcRcpZz988IZ9j-JeaG-188" value="" style="edgeStyle=orthogonalEdgeStyle;rounded=0;orthogonalLoop=1;jettySize=auto;html=1;" edge="1" parent="1" source="QvcRcpZz988IZ9j-JeaG-185" target="QvcRcpZz988IZ9j-JeaG-184">
          <mxGeometry relative="1" as="geometry" />
        </mxCell>
        <mxCell id="QvcRcpZz988IZ9j-JeaG-189" value="True" style="edgeLabel;html=1;align=center;verticalAlign=middle;resizable=0;points=[];" connectable="0" vertex="1" parent="QvcRcpZz988IZ9j-JeaG-188">
          <mxGeometry x="-0.2173" y="3" relative="1" as="geometry">
            <mxPoint as="offset" />
          </mxGeometry>
        </mxCell>
        <mxCell id="QvcRcpZz988IZ9j-JeaG-185" value="condition[&quot;status&quot;] ==&#39;Unknown&#39;" style="rhombus;whiteSpace=wrap;html=1;" vertex="1" parent="1">
          <mxGeometry x="1777" y="3270" width="250" height="80" as="geometry" />
        </mxCell>
        <mxCell id="QvcRcpZz988IZ9j-JeaG-195" value="" style="edgeStyle=orthogonalEdgeStyle;rounded=0;orthogonalLoop=1;jettySize=auto;html=1;" edge="1" parent="1" source="QvcRcpZz988IZ9j-JeaG-190" target="QvcRcpZz988IZ9j-JeaG-194">
          <mxGeometry relative="1" as="geometry" />
        </mxCell>
        <mxCell id="QvcRcpZz988IZ9j-JeaG-196" value="True" style="edgeLabel;html=1;align=center;verticalAlign=middle;resizable=0;points=[];" connectable="0" vertex="1" parent="QvcRcpZz988IZ9j-JeaG-195">
          <mxGeometry x="-0.0574" relative="1" as="geometry">
            <mxPoint as="offset" />
          </mxGeometry>
        </mxCell>
        <mxCell id="QvcRcpZz988IZ9j-JeaG-198" value="" style="edgeStyle=orthogonalEdgeStyle;rounded=0;orthogonalLoop=1;jettySize=auto;html=1;" edge="1" parent="1" source="QvcRcpZz988IZ9j-JeaG-190" target="QvcRcpZz988IZ9j-JeaG-197">
          <mxGeometry relative="1" as="geometry" />
        </mxCell>
        <mxCell id="QvcRcpZz988IZ9j-JeaG-199" value="False" style="edgeLabel;html=1;align=center;verticalAlign=middle;resizable=0;points=[];" connectable="0" vertex="1" parent="QvcRcpZz988IZ9j-JeaG-198">
          <mxGeometry x="-0.2273" relative="1" as="geometry">
            <mxPoint as="offset" />
          </mxGeometry>
        </mxCell>
        <mxCell id="QvcRcpZz988IZ9j-JeaG-190" value="condition[&quot;message&quot;]==&#39;initial scale never achieved&#39;" style="rhombus;whiteSpace=wrap;html=1;" vertex="1" parent="1">
          <mxGeometry x="1442" y="3390" width="270" height="80" as="geometry" />
        </mxCell>
        <mxCell id="QvcRcpZz988IZ9j-JeaG-208" value="" style="edgeStyle=orthogonalEdgeStyle;rounded=0;orthogonalLoop=1;jettySize=auto;html=1;" edge="1" parent="1" source="QvcRcpZz988IZ9j-JeaG-194" target="QvcRcpZz988IZ9j-JeaG-207">
          <mxGeometry relative="1" as="geometry" />
        </mxCell>
        <mxCell id="QvcRcpZz988IZ9j-JeaG-194" value="deployment_status=&quot;&lt;span style=&quot;text-align: left;&quot;&gt;deployment_failed&lt;/span&gt;&quot;" style="rounded=1;whiteSpace=wrap;html=1;" vertex="1" parent="1">
          <mxGeometry x="1794.5" y="3400" width="265" height="60" as="geometry" />
        </mxCell>
        <mxCell id="QvcRcpZz988IZ9j-JeaG-201" value="" style="edgeStyle=orthogonalEdgeStyle;rounded=0;orthogonalLoop=1;jettySize=auto;html=1;" edge="1" parent="1" source="QvcRcpZz988IZ9j-JeaG-197" target="QvcRcpZz988IZ9j-JeaG-200">
          <mxGeometry relative="1" as="geometry" />
        </mxCell>
        <mxCell id="QvcRcpZz988IZ9j-JeaG-202" value="True" style="edgeLabel;html=1;align=center;verticalAlign=middle;resizable=0;points=[];" connectable="0" vertex="1" parent="QvcRcpZz988IZ9j-JeaG-201">
          <mxGeometry x="-0.2571" y="-2" relative="1" as="geometry">
            <mxPoint as="offset" />
          </mxGeometry>
        </mxCell>
        <mxCell id="QvcRcpZz988IZ9j-JeaG-204" value="" style="edgeStyle=orthogonalEdgeStyle;rounded=0;orthogonalLoop=1;jettySize=auto;html=1;" edge="1" parent="1" source="QvcRcpZz988IZ9j-JeaG-197" target="QvcRcpZz988IZ9j-JeaG-203">
          <mxGeometry relative="1" as="geometry" />
        </mxCell>
        <mxCell id="QvcRcpZz988IZ9j-JeaG-205" value="False" style="edgeLabel;html=1;align=center;verticalAlign=middle;resizable=0;points=[];" connectable="0" vertex="1" parent="QvcRcpZz988IZ9j-JeaG-204">
          <mxGeometry x="-0.1035" relative="1" as="geometry">
            <mxPoint as="offset" />
          </mxGeometry>
        </mxCell>
        <mxCell id="QvcRcpZz988IZ9j-JeaG-197" value="condition[&quot;message&quot;]==&#39;insufficient&#39;" style="rhombus;whiteSpace=wrap;html=1;" vertex="1" parent="1">
          <mxGeometry x="1437" y="3510" width="270" height="80" as="geometry" />
        </mxCell>
        <mxCell id="QvcRcpZz988IZ9j-JeaG-209" style="edgeStyle=orthogonalEdgeStyle;rounded=0;orthogonalLoop=1;jettySize=auto;html=1;" edge="1" parent="1" source="QvcRcpZz988IZ9j-JeaG-200" target="QvcRcpZz988IZ9j-JeaG-182">
          <mxGeometry relative="1" as="geometry">
            <mxPoint x="1467" y="3210" as="targetPoint" />
            <Array as="points">
              <mxPoint x="1910" y="3770" />
              <mxPoint x="1197" y="3770" />
              <mxPoint x="1197" y="3200" />
              <mxPoint x="1297" y="3200" />
              <mxPoint x="1297" y="3210" />
            </Array>
          </mxGeometry>
        </mxCell>
        <mxCell id="QvcRcpZz988IZ9j-JeaG-200" value="deployment_status=&quot;&lt;span style=&quot;text-align: left;&quot;&gt;deployment_inprogress&lt;/span&gt;&quot;" style="rounded=1;whiteSpace=wrap;html=1;" vertex="1" parent="1">
          <mxGeometry x="1777" y="3530" width="265" height="60" as="geometry" />
        </mxCell>
        <mxCell id="QvcRcpZz988IZ9j-JeaG-210" style="edgeStyle=orthogonalEdgeStyle;rounded=0;orthogonalLoop=1;jettySize=auto;html=1;" edge="1" parent="1" source="QvcRcpZz988IZ9j-JeaG-203">
          <mxGeometry relative="1" as="geometry">
            <mxPoint x="1367" y="3210" as="targetPoint" />
          </mxGeometry>
        </mxCell>
        <mxCell id="QvcRcpZz988IZ9j-JeaG-203" value="deployment_status=&quot;&lt;span style=&quot;text-align: left;&quot;&gt;deployment_inprogress&lt;/span&gt;&quot;" style="rounded=1;whiteSpace=wrap;html=1;" vertex="1" parent="1">
          <mxGeometry x="1442" y="3630" width="265" height="60" as="geometry" />
        </mxCell>
        <mxCell id="QvcRcpZz988IZ9j-JeaG-207" value="Break the loop" style="text;html=1;align=center;verticalAlign=middle;whiteSpace=wrap;rounded=0;" vertex="1" parent="1">
          <mxGeometry x="2177" y="3420" width="60" height="30" as="geometry" />
        </mxCell>
        <mxCell id="QvcRcpZz988IZ9j-JeaG-218" value="" style="edgeStyle=orthogonalEdgeStyle;rounded=0;orthogonalLoop=1;jettySize=auto;html=1;" edge="1" parent="1" source="QvcRcpZz988IZ9j-JeaG-214" target="QvcRcpZz988IZ9j-JeaG-216">
          <mxGeometry relative="1" as="geometry" />
        </mxCell>
        <mxCell id="QvcRcpZz988IZ9j-JeaG-214" value="if deployment:&lt;div&gt;refresh DB for deployment (To get updated timestamp)&lt;/div&gt;" style="rounded=1;whiteSpace=wrap;html=1;" vertex="1" parent="1">
          <mxGeometry x="1898" y="3880" width="120" height="60" as="geometry" />
        </mxCell>
        <mxCell id="QvcRcpZz988IZ9j-JeaG-219" value="" style="edgeStyle=orthogonalEdgeStyle;rounded=0;orthogonalLoop=1;jettySize=auto;html=1;" edge="1" parent="1" source="QvcRcpZz988IZ9j-JeaG-216" target="QvcRcpZz988IZ9j-JeaG-217">
          <mxGeometry relative="1" as="geometry" />
        </mxCell>
        <mxCell id="QvcRcpZz988IZ9j-JeaG-216" value="Update the project deployment&amp;nbsp; status in project admin" style="rounded=1;whiteSpace=wrap;html=1;" vertex="1" parent="1">
          <mxGeometry x="1898" y="3980" width="120" height="60" as="geometry" />
        </mxCell>
        <mxCell id="QvcRcpZz988IZ9j-JeaG-217" value="Return deployment status" style="rounded=1;whiteSpace=wrap;html=1;" vertex="1" parent="1">
          <mxGeometry x="1898" y="4100" width="120" height="60" as="geometry" />
        </mxCell>
        <mxCell id="QvcRcpZz988IZ9j-JeaG-223" value="Frontend" style="text;html=1;align=center;verticalAlign=middle;whiteSpace=wrap;rounded=0;" vertex="1" parent="1">
          <mxGeometry x="820" y="1460" width="60" height="30" as="geometry" />
        </mxCell>
        <mxCell id="QvcRcpZz988IZ9j-JeaG-225" value="&lt;h1 style=&quot;margin-top: 0px;&quot;&gt;Security Feature&lt;/h1&gt;&lt;p&gt;- Token based authorization and authentication&lt;/p&gt;" style="text;html=1;whiteSpace=wrap;overflow=hidden;rounded=0;" vertex="1" parent="1">
          <mxGeometry x="1240" y="4340" width="200" height="230" as="geometry" />
        </mxCell>
      </root>
    </mxGraphModel>
  </diagram>
</mxfile>
